<mxfile host="drawio-plugin" modified="2022-01-24T11:20:48.234Z" agent="5.0 (Windows NT 6.2; Win64; x64) AppleWebKit/537.36 (KHTML, like Gecko) Chrome/89.0.4389.114 Safari/537.36" etag="TRJ_sezcAfwuxPGjXFG1" version="15.5.4" type="embed" pages="2"><diagram id="C5RBs43oDa-KdzZeNtuy" name="出入库流程"><mxGraphModel dx="524" dy="373" grid="1" gridSize="10" guides="1" tooltips="1" connect="1" arrows="1" fold="1" page="1" pageScale="1" pageWidth="1169" pageHeight="1654" math="0" shadow="0"><root><mxCell id="WIyWlLk6GJQsqaUBKTNV-0"/><mxCell id="WIyWlLk6GJQsqaUBKTNV-1" parent="WIyWlLk6GJQsqaUBKTNV-0"/><mxCell id="1" value="" style="edgeStyle=orthogonalEdgeStyle;rounded=0;orthogonalLoop=1;jettySize=auto;html=1;" parent="WIyWlLk6GJQsqaUBKTNV-1" source="BxBbRvxjBFWGLJxQWWaA-0" target="BxBbRvxjBFWGLJxQWWaA-5" edge="1"><mxGeometry relative="1" as="geometry"/></mxCell><mxCell id="3" value="" style="edgeStyle=orthogonalEdgeStyle;rounded=0;orthogonalLoop=1;jettySize=auto;html=1;" parent="WIyWlLk6GJQsqaUBKTNV-1" source="BxBbRvxjBFWGLJxQWWaA-0" target="2" edge="1"><mxGeometry relative="1" as="geometry"/></mxCell><mxCell id="5" value="" style="edgeStyle=orthogonalEdgeStyle;rounded=0;orthogonalLoop=1;jettySize=auto;html=1;" parent="WIyWlLk6GJQsqaUBKTNV-1" source="BxBbRvxjBFWGLJxQWWaA-0" target="4" edge="1"><mxGeometry relative="1" as="geometry"/></mxCell><mxCell id="BxBbRvxjBFWGLJxQWWaA-0" value="申请人" style="ellipse;whiteSpace=wrap;html=1;aspect=fixed;fillColor=#f8cecc;strokeColor=#b85450;align=center;" parent="WIyWlLk6GJQsqaUBKTNV-1" vertex="1"><mxGeometry x="570" y="570" width="60" height="60" as="geometry"/></mxCell><mxCell id="14" value="" style="edgeStyle=orthogonalEdgeStyle;rounded=0;orthogonalLoop=1;jettySize=auto;html=1;" parent="WIyWlLk6GJQsqaUBKTNV-1" source="BxBbRvxjBFWGLJxQWWaA-5" target="13" edge="1"><mxGeometry relative="1" as="geometry"/></mxCell><mxCell id="BxBbRvxjBFWGLJxQWWaA-5" value="出库" style="rounded=0;whiteSpace=wrap;html=1;fillColor=#dae8fc;strokeColor=#6c8ebf;" parent="WIyWlLk6GJQsqaUBKTNV-1" vertex="1"><mxGeometry x="490" y="585" width="40" height="30" as="geometry"/></mxCell><mxCell id="2" value="借" style="rounded=0;whiteSpace=wrap;html=1;fillColor=#ffe6cc;strokeColor=#d79b00;imageHeight=24;imageWidth=24;" parent="WIyWlLk6GJQsqaUBKTNV-1" vertex="1"><mxGeometry x="577.5" y="500" width="45" height="30" as="geometry"/></mxCell><mxCell id="29" value="" style="edgeStyle=orthogonalEdgeStyle;rounded=0;orthogonalLoop=1;jettySize=auto;html=1;" parent="WIyWlLk6GJQsqaUBKTNV-1" source="4" edge="1"><mxGeometry relative="1" as="geometry"><mxPoint x="800" y="600" as="targetPoint"/></mxGeometry></mxCell><mxCell id="4" value="入库" style="rounded=0;whiteSpace=wrap;html=1;fillColor=#d5e8d4;strokeColor=#82b366;" parent="WIyWlLk6GJQsqaUBKTNV-1" vertex="1"><mxGeometry x="670.0000000000001" y="585" width="50" height="30" as="geometry"/></mxCell><mxCell id="16" value="" style="edgeStyle=orthogonalEdgeStyle;rounded=0;orthogonalLoop=1;jettySize=auto;html=1;" parent="WIyWlLk6GJQsqaUBKTNV-1" source="13" target="15" edge="1"><mxGeometry relative="1" as="geometry"/></mxCell><mxCell id="13" value="出库单(审)" style="shape=parallelogram;perimeter=parallelogramPerimeter;whiteSpace=wrap;html=1;fixedSize=1;align=center;fillColor=#dae8fc;strokeColor=#6c8ebf;" parent="WIyWlLk6GJQsqaUBKTNV-1" vertex="1"><mxGeometry x="380" y="585" width="80" height="30" as="geometry"/></mxCell><mxCell id="18" value="" style="edgeStyle=orthogonalEdgeStyle;rounded=0;orthogonalLoop=1;jettySize=auto;html=1;" parent="WIyWlLk6GJQsqaUBKTNV-1" source="15" target="17" edge="1"><mxGeometry relative="1" as="geometry"/></mxCell><mxCell id="22" value="" style="edgeStyle=orthogonalEdgeStyle;rounded=0;orthogonalLoop=1;jettySize=auto;html=1;" parent="WIyWlLk6GJQsqaUBKTNV-1" source="15" target="21" edge="1"><mxGeometry relative="1" as="geometry"/></mxCell><mxCell id="15" value="协管员" style="ellipse;whiteSpace=wrap;html=1;fillColor=#dae8fc;strokeColor=#6c8ebf;" parent="WIyWlLk6GJQsqaUBKTNV-1" vertex="1"><mxGeometry x="260" y="580" width="90" height="40" as="geometry"/></mxCell><mxCell id="20" value="" style="edgeStyle=orthogonalEdgeStyle;rounded=0;orthogonalLoop=1;jettySize=auto;html=1;" parent="WIyWlLk6GJQsqaUBKTNV-1" source="17" target="19" edge="1"><mxGeometry relative="1" as="geometry"/></mxCell><mxCell id="17" value="处理中" style="whiteSpace=wrap;html=1;strokeColor=#6c8ebf;fillColor=#dae8fc;" parent="WIyWlLk6GJQsqaUBKTNV-1" vertex="1"><mxGeometry x="248.75" y="660" width="112.5" height="40" as="geometry"/></mxCell><mxCell id="24" value="" style="edgeStyle=orthogonalEdgeStyle;rounded=0;orthogonalLoop=1;jettySize=auto;html=1;" parent="WIyWlLk6GJQsqaUBKTNV-1" source="19" target="23" edge="1"><mxGeometry relative="1" as="geometry"/></mxCell><mxCell id="19" value="待取货" style="whiteSpace=wrap;html=1;strokeColor=#6c8ebf;fillColor=#dae8fc;" parent="WIyWlLk6GJQsqaUBKTNV-1" vertex="1"><mxGeometry x="248.75" y="750" width="112.5" height="40" as="geometry"/></mxCell><mxCell id="21" value="驳回" style="whiteSpace=wrap;html=1;strokeColor=#6c8ebf;fillColor=#dae8fc;" parent="WIyWlLk6GJQsqaUBKTNV-1" vertex="1"><mxGeometry x="120" y="580" width="80" height="40" as="geometry"/></mxCell><mxCell id="23" value="订单完成" style="whiteSpace=wrap;html=1;strokeColor=#6c8ebf;fillColor=#dae8fc;" parent="WIyWlLk6GJQsqaUBKTNV-1" vertex="1"><mxGeometry x="248.75" y="840" width="112.5" height="40" as="geometry"/></mxCell><mxCell id="32" value="" style="edgeStyle=orthogonalEdgeStyle;rounded=0;orthogonalLoop=1;jettySize=auto;html=1;" parent="WIyWlLk6GJQsqaUBKTNV-1" source="30" target="31" edge="1"><mxGeometry relative="1" as="geometry"/></mxCell><mxCell id="30" value="入库单(审)" style="shape=parallelogram;perimeter=parallelogramPerimeter;whiteSpace=wrap;html=1;fixedSize=1;align=center;fillColor=#d5e8d4;strokeColor=#82b366;" parent="WIyWlLk6GJQsqaUBKTNV-1" vertex="1"><mxGeometry x="790" y="585" width="80" height="30" as="geometry"/></mxCell><mxCell id="34" value="" style="edgeStyle=orthogonalEdgeStyle;rounded=0;orthogonalLoop=1;jettySize=auto;html=1;" parent="WIyWlLk6GJQsqaUBKTNV-1" source="31" target="33" edge="1"><mxGeometry relative="1" as="geometry"/></mxCell><mxCell id="39" value="" style="edgeStyle=orthogonalEdgeStyle;rounded=0;orthogonalLoop=1;jettySize=auto;html=1;" parent="WIyWlLk6GJQsqaUBKTNV-1" source="31" target="37" edge="1"><mxGeometry relative="1" as="geometry"/></mxCell><mxCell id="31" value="协管员" style="ellipse;whiteSpace=wrap;html=1;fillColor=#d5e8d4;strokeColor=#82b366;" parent="WIyWlLk6GJQsqaUBKTNV-1" vertex="1"><mxGeometry x="790" y="660" width="80" height="40" as="geometry"/></mxCell><mxCell id="36" value="" style="edgeStyle=orthogonalEdgeStyle;rounded=0;orthogonalLoop=1;jettySize=auto;html=1;" parent="WIyWlLk6GJQsqaUBKTNV-1" source="33" target="35" edge="1"><mxGeometry relative="1" as="geometry"/></mxCell><mxCell id="33" value="待入库" style="whiteSpace=wrap;html=1;strokeColor=#82b366;fillColor=#d5e8d4;" parent="WIyWlLk6GJQsqaUBKTNV-1" vertex="1"><mxGeometry x="773.75" y="740" width="112.5" height="40" as="geometry"/></mxCell><mxCell id="35" value="入库完成" style="whiteSpace=wrap;html=1;strokeColor=#82b366;fillColor=#d5e8d4;" parent="WIyWlLk6GJQsqaUBKTNV-1" vertex="1"><mxGeometry x="773.75" y="840" width="112.5" height="40" as="geometry"/></mxCell><mxCell id="37" value="驳回" style="whiteSpace=wrap;html=1;strokeColor=#82b366;fillColor=#d5e8d4;" parent="WIyWlLk6GJQsqaUBKTNV-1" vertex="1"><mxGeometry x="950" y="660" width="80" height="40" as="geometry"/></mxCell></root></mxGraphModel></diagram><diagram id="USC6rIarAQgZba0VKdB3" name="limit"><mxGraphModel dx="524" dy="373" grid="1" gridSize="10" guides="1" tooltips="1" connect="1" arrows="1" fold="1" page="1" pageScale="1" pageWidth="850" pageHeight="1100" math="0" shadow="0"><root><mxCell id="kePwFy3JXCCqzPoxsTsm-0"/><mxCell id="kePwFy3JXCCqzPoxsTsm-1" parent="kePwFy3JXCCqzPoxsTsm-0"/></root></mxGraphModel></diagram></mxfile>